<svg xmlns="http://www.w3.org/2000/svg" xmlns:xlink="http://www.w3.org/1999/xlink" viewBox="0 0 85.09187564766839 95.481" height="95.481" width="85.09187564766839" data-background-color="#ffffff" preserveAspectRatio="xMidYMid meet" id="tight-bounds"><g><svg viewBox="0 0 85.09187564766839 95.481" height="95.481" width="85.09187564766839"><g><svg viewBox="0 0 85.09187564766839 95.481" height="95.481" width="85.09187564766839"><g id="textblocktransform"><svg viewBox="0 0 85.09187564766839 95.481" height="95.481" width="85.09187564766839" id="textblock"><g><svg viewBox="0 0 85.09187564766839 95.481" height="95.481" width="85.09187564766839"><g><svg viewBox="0 0 85.09187564766839 95.481" height="95.481" width="85.09187564766839"><g><svg xmlns="http://www.w3.org/2000/svg" xml:space="preserve" viewBox="7 2.5 86 96.5" x="0" y="0" height="95.481" width="85.09187564766839" class="icon-icon-0" data-fill-palette-color="accent" id="icon-0"><path d="M85.368 55.688h-0.004l-26.018 13.55h0.139C55.291 71.423 52 77.078 52 81.806V99l33.508-17.521C89.701 79.295 93 73.639 93 68.911V51.717zM14.632 49.671h0.004l26.018 13.55h-0.139C44.709 65.405 48 71.06 48 75.789v17.194L14.492 75.461C10.299 73.277 7 67.621 7 62.893V45.7zM77.116 35.675h-0.083L57.479 45.837h0.119C54.454 47.476 52 51.717 52 55.264V68.16l25.256-13.141C80.401 53.38 83 49.138 83 45.592V32.696zM22.884 29.657h0.083L42.521 39.82h-0.119C45.546 41.458 48 45.7 48 49.246v12.896L22.744 49C19.599 47.362 17 43.12 17 39.574V26.678zM68.364 22.539h0.088l-12.964 6.775h0.162c-2.097 1.092-3.65 3.92-3.65 6.284v8.596l16.504-8.76C70.601 34.343 72 31.515 72 29.151v-8.596zM59.534 18.605c0.129-1.98-1.061-3.913-2.308-5.737L50.139 2.5l-6.416 9.01c-1.354 1.938-0.908 4.674 0.992 6.081 1.611 1.194 3.515 2.428 4.864 3.954 1.41 1.595 1.755 3.317 1.969 5.314 0.229-0.084 5.343-3.45 7.001-5.696 0.634-0.858 0.93-1.713 0.985-2.558M31.636 16.521h-0.088l12.964 6.775h-0.162c2.097 1.092 3.65 3.92 3.65 6.284v8.596l-16.504-8.76C29.399 28.325 28 25.497 28 23.133v-8.596z" fill="#269744" data-fill-palette-color="accent"/></svg></g></svg></g></svg></g></svg></g></svg></g></svg></g><defs/></svg>